<svg id="Layer_1" data-name="Layer 1" xmlns="http://www.w3.org/2000/svg" viewBox="0 0 50 50"><defs><style>.cls-1{fill:#4e4d4d;stroke:#4e4d4d;stroke-linecap:round;stroke-linejoin:round;stroke-width:0.16px;}</style></defs><path class="cls-1" d="M27.67,21.18l.55.51a6.41,6.41,0,0,1,.56.58c.19.2.51.57.72.81h0c.21.24.56.63.78.86l.43.45.23-.09-.06-.15a2.29,2.29,0,0,0-.31-.45c-.13-.15-.38-.43-.55-.6l-.72-.73-.07-.07-.84-.81-.31-.27a3.35,3.35,0,0,0-.69-.5c-.14-.05-.21,0-.15,0Z"/><path class="cls-1" d="M48.46,29.37a3.07,3.07,0,0,0-.84-.13l-.41,0c-.32,0-.84,0-1.16,0H44.92l-.82.05a2.16,2.16,0,0,0-.53.1l-.15.06.09.23.63,0c.32,0,.85,0,1.17-.07h0l1.08-.07a7.94,7.94,0,0,1,.81,0l.75,0c.24,0,.51,0,.6,0S48.6,29.43,48.46,29.37Z"/><path class="cls-1" d="M34.69,21.1a2.83,2.83,0,0,0,0,.29c0,.08,0,.27,0,.42a3.64,3.64,0,0,0,0,.48c0,.12,0,.32,0,.45s0,.34,0,.46v.21l.09,0a.29.29,0,0,0-.11.11.87.87,0,0,0,.07.33c0,.13.09.33.11.44l0,.21.65-.55s-.22-.46-.27-.52a.23.23,0,0,0-.19-.11l.05,0,0-.1c0-.06,0-.18,0-.27s0-.43,0-.75v-.38c0-.32,0-.64,0-.7a.4.4,0,0,0,0-.17s-.09-.06-.15-.06a.86.86,0,0,0-.21.07A.2.2,0,0,0,34.69,21.1Z"/><path class="cls-1" d="M33,17.51c.08.14.21.38.28.53s.25.45.36.65l.38.65c.09.16.24.45.32.63s.2.47.25.63l.11.28.3-.1s0-.09-.06-.21a3.89,3.89,0,0,0-.22-.55c-.1-.18-.3-.56-.46-.84L34.13,19c-.16-.27-.44-.72-.61-1l-.27-.41L32.87,17c0-.06-.08-.08-.11-.05a.19.19,0,0,0,0,.19Z"/><path class="cls-1" d="M42,24.93l-.54.52-.22.17-.08.06,0,0a.24.24,0,0,0-.21,0c-.08,0-.56.18-.56.18l.08.85.17-.12.4-.24a1,1,0,0,0,.27-.18.22.22,0,0,0,0-.16l0,.08.15-.15.32-.31a3.11,3.11,0,0,1,.35-.3A3.46,3.46,0,0,0,42.5,25l.31-.28.22-.19a.2.2,0,0,0,.07-.2.78.78,0,0,0-.11-.2.18.18,0,0,0-.14-.06.41.41,0,0,0-.14.1l-.49.5Z"/><path class="cls-1" d="M43.46,24.23l.62-.26.66-.23.73-.2.71-.2.58-.18.43-.13c.07,0,.14-.08.14-.12s0-.07-.11-.05l-.69.16-.48.1c-.31.07-.82.19-1.13.28l-.23.06-.92.28a5.14,5.14,0,0,0-.54.23l-.19.11.14.28Z"/><path class="cls-1" d="M39.88,24.69l-.37-.15c-.23-.08-.4-.11-.5-.14L40.5,25l-.22-.09Z"/><path class="cls-1" d="M43.26,29.39a1.07,1.07,0,0,0-.5.13c-.18.09-.56.24-.83.35s-.6.24-.72.3a1.74,1.74,0,0,1-.38.15l-.15,0h0a.3.3,0,0,0-.13-.27l-.45-.38,0,0a.33.33,0,0,0,0-.1c0-.09,0-.26,0-.37a2.58,2.58,0,0,1,.06-.43l0-.24-.19,0h-.47l.12-.12a1.39,1.39,0,0,0,.23-.25h0a.62.62,0,0,0,.37-.43c0-.08.05-.22.08-.32s.07-.27.1-.41a2.27,2.27,0,0,0,0-.44c0-.11,0-.32,0-.47a3.91,3.91,0,0,0-.07-.45,1.81,1.81,0,0,0-.2-.39,2.91,2.91,0,0,0-.33-.37,2.76,2.76,0,0,0-.45-.33l-.52-.27-.15-.07,1,.37.94.39-.09,0,.11,0,.39.16v0h0l0,0V25l.05.08a.08.08,0,0,0,.11,0,1,1,0,0,0,.2-.23,4.28,4.28,0,0,0,.2-.43,1.44,1.44,0,0,0,.09-.42c0-.11,0-.3,0-.43a1.46,1.46,0,0,0-.15-.49c-.07-.13-.17-.3-.22-.37l-.16-.23,0,0h0l-.06,0s-.06-.05-.09-.05h0l-.12,0-.14-.13c-.09-.07-.23-.18-.34-.25h.05l.17,0a.38.38,0,0,0,.13-.09h.08a.41.41,0,0,0,.18-.05.43.43,0,0,0,.14-.13.34.34,0,0,0,.07-.17s0,0,0,0l.11,0a1,1,0,0,1,.25,0l.31,0a2.12,2.12,0,0,1,.43.16c.13.06.19.09.13.05l-.24-.16a1.66,1.66,0,0,0-.31-.12,1.34,1.34,0,0,0-.35,0l-.29,0H41.1l0-.07a.77.77,0,0,0-.15-.16.57.57,0,0,0-.24-.08.46.46,0,0,0-.26.07l-.07.05-.17,0a.33.33,0,0,0-.22.06.67.67,0,0,0-.14.15s0,0,0,0a.18.18,0,0,0-.12-.12l-.27-.12a.54.54,0,0,0,0-.18.37.37,0,0,0-.11-.2.64.64,0,0,0-.13-.1l0-.1a.42.42,0,0,0-.13-.22.6.6,0,0,0-.22-.12.55.55,0,0,0-.22,0l-.07,0,0,0a2.15,2.15,0,0,0-.18-.23,1.23,1.23,0,0,0-.28-.23,1.38,1.38,0,0,0-.17-.08l-.17-.07-.29-.06,0,0,.14.06.18.07.18.1.25.2a.7.7,0,0,1,.16.19.76.76,0,0,1,.08.13h0a.67.67,0,0,0-.08.17.66.66,0,0,0,0,.2.54.54,0,0,0,.09.15l.07.06a.36.36,0,0,0,0,.15,1,1,0,0,0,.09.15l-.12,0L38,21.12h-.17L37.64,21l0,0h-.22a2.41,2.41,0,0,0-.44.08,1.59,1.59,0,0,0-.37.18l-.33.27a1.58,1.58,0,0,0-.31.4c-.07.14-.16.31-.19.39s-.08.2-.1.27a.33.33,0,0,0,0,.22.13.13,0,0,0,.09.06h0l-.06,0,.05,0h0l.15.06.13.07.41.17.4.17.37.15c.18.08.35.2.45.25l-.32-.09a2.33,2.33,0,0,0-.55-.09,2.81,2.81,0,0,0-.5,0,1.41,1.41,0,0,0-.41.13,2.44,2.44,0,0,0-.37.27l-.36.31a1.87,1.87,0,0,0-.28.33l-.23.37-.16.28a.62.62,0,0,0-.09.33.7.7,0,0,0,0,.23l0,0a1.87,1.87,0,0,0,0,.33v.1l0-.06-.16-.17L34.07,26l-.15-.11-.16.18a2.42,2.42,0,0,1-.27.34l-.3.22a1,1,0,0,0-.16.18h-.46c-.14,0-.27.05-.29.13a.91.91,0,0,1-.09.22l0,.06.1-.32-.09-.14A2.1,2.1,0,0,1,32,26.4c0-.13-.18-.46-.3-.73s-.28-.64-.35-.83a1,1,0,0,0-.26-.44.29.29,0,0,0-.25,0,.2.2,0,0,0-.12.17,1.3,1.3,0,0,0,.08.33l.2.51c.07.17.17.45.23.63a4.37,4.37,0,0,0,.25.56,2,2,0,0,0,.39.45c.15.12.27.21.27.22a.61.61,0,0,1-.07.1c0,.05.09.13.28.17l.27.06-.24.43a2.66,2.66,0,0,0-.2.45,1.38,1.38,0,0,1-.14.35l-.19.26-.3.38-.3.4-.22.3,0,.05a7.69,7.69,0,0,0-.62.82c-.06.09-.12.21-.18.32l-.45.51-.16.18c-.19.21-.49.57-.66.8l-.39.52a1.26,1.26,0,0,0-.13.17l0,0-.14.09c-.28.16-.72.43-1,.61l-.32.21-.84.54a4.06,4.06,0,0,0-.7.58A1.46,1.46,0,0,0,25,36s.17-.07.38-.28a5.05,5.05,0,0,1,.88-.66l.4-.23,1-.56.2-.1.09-.05,0,0-.33.55c-.15.24-.37.62-.49.83s-.3.54-.39.73-.24.57-.34.84l-.23.6a6.82,6.82,0,0,0-.27,1l-.05.29c0,.29-.09.76-.1,1.05v.14a5.59,5.59,0,0,0,.07,1,4.23,4.23,0,0,0,.25.87,2.73,2.73,0,0,0,.42.64,4,4,0,0,0,.48.45,2.19,2.19,0,0,0,.55.28,2.76,2.76,0,0,0,.65.09,4,4,0,0,0,.74-.07,4.2,4.2,0,0,0,.87-.34l.42-.22.09-.06,0,.1.12.46a4,4,0,0,0,.36.86,4.26,4.26,0,0,0,.45.6,3.28,3.28,0,0,0,.52.4,2.37,2.37,0,0,0,.58.21,6.48,6.48,0,0,0,.65,0,3.06,3.06,0,0,0,.76-.14,4.83,4.83,0,0,0,.81-.42,7.55,7.55,0,0,0,.78-.64l.09-.1a8.48,8.48,0,0,0,.69-.79l.18-.24a6.27,6.27,0,0,0,.55-.89l.28-.58c.12-.26.29-.63.37-.82s.2-.55.27-.79.19-.65.26-.92l.17-.63c0-.18.11-.44.16-.68.07.26.14.55.2.76l.07.21L39,40l.11.44a5.29,5.29,0,0,1,.15,1.09c0,.29,0,.5.07.46a1.68,1.68,0,0,0,.08-.58,4.31,4.31,0,0,0-.07-.91c-.06-.22-.15-.66-.21-1L39,39.16c-.06-.31-.17-.82-.25-1.14l0-.15c-.06-.24-.14-.57-.2-.84l0-.09c0-.28.1-.75.13-1v-.1a3.78,3.78,0,0,0,.17-.35,5.77,5.77,0,0,0,.26-.8,6.91,6.91,0,0,0,.15-1l0-.65a.37.37,0,0,0,.05-.17.9.9,0,0,0-.11-.29c0-.12,0-.23,0-.3s0-.25,0-.31l.05-.13a.25.25,0,0,0,.18-.12.59.59,0,0,0,.09-.25V31.2a.32.32,0,0,0,0-.09c0-.12.12-.38.19-.58h0l.41.24c.17.09.32.11.33,0s0-.09,0-.14l.28,0a2.2,2.2,0,0,0,.6,0,4,4,0,0,0,.57-.23l.6-.29.5-.22a1.12,1.12,0,0,0,.3-.18.22.22,0,0,0,0-.21A.28.28,0,0,0,43.26,29.39Z"/><rect class="cls-1" x="3.4" y="14.81" width="14.47" height="14.47" rx="0.95"/><path class="cls-1" d="M14.46,21.44l9.25-5.34a.36.36,0,0,1,.54.31V27.09a.36.36,0,0,1-.54.31l-9.25-5.34A.36.36,0,0,1,14.46,21.44Z"/><circle class="cls-1" cx="7.36" cy="10.81" r="3.18"/><circle class="cls-1" cx="14.41" cy="10.22" r="3.77"/></svg>